<svg width="361" height="361" viewBox="0 0 361 361" fill="none" xmlns="http://www.w3.org/2000/svg">
<path fill-rule="evenodd" clip-rule="evenodd" d="M0 0L169.096 78.6492V283.924L92.8061 318.343V178.329C106.375 174.837 116.401 162.52 116.401 147.861C116.401 130.486 102.316 116.401 84.9412 116.401C67.5665 116.401 53.4815 130.486 53.4815 147.861C53.4815 162.52 63.5075 174.837 77.0762 178.329V325.44L0 360.213V0Z" fill="#95C0EE"/>
<path fill-rule="evenodd" clip-rule="evenodd" d="M361 360.214L191.904 281.564L191.904 76.2898L268.194 41.8707L268.194 181.884C254.625 185.377 244.599 197.694 244.599 212.353C244.599 229.728 258.684 243.813 276.059 243.813C293.434 243.813 307.518 229.728 307.518 212.353C307.519 197.694 297.493 185.377 283.924 181.884L283.924 34.774L361 4.2803e-05L361 360.214Z" fill="#5C9EE6"/>
</svg>
